<svg xmlns="http://www.w3.org/2000/svg" viewBox="0 0 1200 800">
  <defs>
    <linearGradient id="gradHalloween" x1="0%" y1="0%" x2="100%" y2="100%">
      <stop offset="0%" style="stop-color:#1a0a2e;stop-opacity:0.4" />
      <stop offset="100%" style="stop-color:#ff6b35;stop-opacity:0.4" />
    </linearGradient>
  </defs>
  <rect width="1200" height="800" fill="url(#gradHalloween)"/>
  <!-- Calabazas estilizadas -->
  <circle cx="150" cy="650" r="40" fill="#ff6b35" opacity="0.2"/>
  <rect x="145" y="610" width="10" height="20" fill="#3d2a54" opacity="0.3"/>
  <circle cx="1000" cy="200" r="50" fill="#ff6b35" opacity="0.2"/>
  <rect x="995" y="150" width="10" height="30" fill="#3d2a54" opacity="0.3"/>
  <!-- Murciélagos abstractos -->
  <path d="M300,100 L310,110 L320,100 L315,115 L325,120 L315,125 L310,140 L305,125 L295,120 L305,115 Z" fill="#1a0a2e" opacity="0.3"/>
  <path d="M800,500 L810,510 L820,500 L815,515 L825,520 L815,525 L810,540 L805,525 L795,520 L805,515 Z" fill="#1a0a2e" opacity="0.3"/>
  <!-- Luna -->
  <circle cx="950" cy="150" r="60" fill="#ffd700" opacity="0.15"/>
  <!-- Telarañas abstractas -->
  <path d="M50,50 L150,50 M50,50 L50,150 M50,50 L150,150" stroke="#9b59b6" stroke-width="2" opacity="0.2"/>
  <path d="M1100,700 L1150,700 M1100,700 L1100,750 M1100,700 L1150,750" stroke="#9b59b6" stroke-width="2" opacity="0.2"/>
</svg>
