<svg xmlns="http://www.w3.org/2000/svg" viewBox="0 0 1200 800">
  <defs>
    <linearGradient id="gradNavidad" x1="0%" y1="0%" x2="100%" y2="100%">
      <stop offset="0%" style="stop-color:#165a4c;stop-opacity:0.3" />
      <stop offset="100%" style="stop-color:#c41e3a;stop-opacity:0.3" />
    </linearGradient>
  </defs>
  <rect width="1200" height="800" fill="url(#gradNavidad)"/>
  <!-- Árboles de navidad estilizados -->
  <polygon points="200,600 180,650 220,650" fill="#165a4c" opacity="0.2"/>
  <polygon points="200,630 170,700 230,700" fill="#165a4c" opacity="0.2"/>
  <rect x="195" y="700" width="10" height="30" fill="#8b4513" opacity="0.2"/>
  <polygon points="1000,200 980,250 1020,250" fill="#165a4c" opacity="0.2"/>
  <polygon points="1000,230 970,300 1030,300" fill="#165a4c" opacity="0.2"/>
  <rect x="995" y="300" width="10" height="30" fill="#8b4513" opacity="0.2"/>
  <!-- Estrellas -->
  <path d="M100,100 L110,130 L140,130 L115,150 L125,180 L100,160 L75,180 L85,150 L60,130 L90,130 Z" fill="#ffd700" opacity="0.2"/>
  <path d="M900,600 L905,615 L920,615 L908,625 L913,640 L900,630 L887,640 L892,625 L880,615 L895,615 Z" fill="#ffd700" opacity="0.2"/>
  <path d="M500,150 L505,165 L520,165 L508,175 L513,190 L500,180 L487,190 L492,175 L480,165 L495,165 Z" fill="#ffd700" opacity="0.2"/>
  <!-- Copos de nieve -->
  <g opacity="0.15">
    <path d="M300,300 L310,300 M305,295 L305,305 M302,297 L308,303 M308,297 L302,303" stroke="#ffffff" stroke-width="2"/>
    <path d="M700,500 L710,500 M705,495 L705,505 M702,497 L708,503 M708,497 L702,503" stroke="#ffffff" stroke-width="2"/>
    <path d="M450,650 L460,650 M455,645 L455,655 M452,647 L458,653 M458,647 L452,653" stroke="#ffffff" stroke-width="2"/>
  </g>
  <!-- Ornamentos -->
  <circle cx="600" cy="400" r="25" fill="#c41e3a" opacity="0.2"/>
  <circle cx="850" cy="250" r="20" fill="#ffd700" opacity="0.2"/>
</svg>