<svg xmlns="http://www.w3.org/2000/svg" viewBox="0 0 1200 800">
  <defs>
    <linearGradient id="gradPascua" x1="0%" y1="0%" x2="100%" y2="100%">
      <stop offset="0%" style="stop-color:#ff9cd6;stop-opacity:0.3" />
      <stop offset="100%" style="stop-color:#8b4789;stop-opacity:0.3" />
    </linearGradient>
  </defs>
  <rect width="1200" height="800" fill="url(#gradPascua)"/>
  <!-- Huevos de pascua -->
  <ellipse cx="200" cy="600" rx="40" ry="55" fill="#ff9cd6" opacity="0.2"/>
  <path d="M180,600 Q200,580 220,600" stroke="#8b4789" stroke-width="3" fill="none" opacity="0.3"/>
  <path d="M180,620 Q200,610 220,620" stroke="#a569a0" stroke-width="3" fill="none" opacity="0.3"/>
  <ellipse cx="950" cy="250" rx="35" ry="50" fill="#d8bfd8" opacity="0.2"/>
  <path d="M930,250 Q950,235 970,250" stroke="#8b4789" stroke-width="3" fill="none" opacity="0.3"/>
  <ellipse cx="600" cy="150" rx="30" ry="45" fill="#ffb3e6" opacity="0.2"/>
  <path d="M585,150 Q600,138 615,150" stroke="#8b4789" stroke-width="3" fill="none" opacity="0.3"/>
  <!-- Conejitos abstractos -->
  <g opacity="0.15">
    <circle cx="400" cy="500" r="30" fill="#ff9cd6"/>
    <ellipse cx="400" cy="460" rx="25" ry="35" fill="#ff9cd6"/>
    <ellipse cx="385" cy="430" rx="8" ry="20" fill="#ff9cd6"/>
    <ellipse cx="415" cy="430" rx="8" ry="20" fill="#ff9cd6"/>
  </g>
  <!-- Flores -->
  <g opacity="0.2">
    <circle cx="750" cy="600" r="15" fill="#ffb3e6"/>
    <circle cx="735" cy="600" r="8" fill="#ff9cd6"/>
    <circle cx="765" cy="600" r="8" fill="#ff9cd6"/>
    <circle cx="750" cy="585" r="8" fill="#ff9cd6"/>
    <circle cx="750" cy="615" r="8" fill="#ff9cd6"/>
    <rect x="748" y="615" width="4" height="40" fill="#90ee90"/>
  </g>
  <!-- Mariposas -->
  <path d="M100,200 Q90,190 100,180 Q110,190 100,200 Q110,210 100,220 Q90,210 100,200" fill="#a569a0" opacity="0.2"/>
  <path d="M1050,550 Q1040,540 1050,530 Q1060,540 1050,550 Q1060,560 1050,570 Q1040,560 1050,550" fill="#8b4789" opacity="0.2"/>
</svg>